<mxfile host="app.diagrams.net" agent="Mozilla/5.0 (Windows NT 10.0; Win64; x64) AppleWebKit/537.36 (KHTML, like Gecko) Chrome/139.0.0.0 Safari/537.36" version="28.2.0">
  <diagram id="C5RBs43oDa-KdzZeNtuy" name="Page-1">
    <mxGraphModel dx="1464" dy="711" grid="1" gridSize="10" guides="1" tooltips="1" connect="1" arrows="1" fold="1" page="1" pageScale="1" pageWidth="827" pageHeight="1169" math="0" shadow="0">
      <root>
        <mxCell id="WIyWlLk6GJQsqaUBKTNV-0" />
        <mxCell id="WIyWlLk6GJQsqaUBKTNV-1" parent="WIyWlLk6GJQsqaUBKTNV-0" />
        <mxCell id="_imwvv8QGTC9gUUnr2fX-5" value="" style="edgeStyle=orthogonalEdgeStyle;rounded=0;orthogonalLoop=1;jettySize=auto;html=1;" edge="1" parent="WIyWlLk6GJQsqaUBKTNV-1" source="_imwvv8QGTC9gUUnr2fX-3" target="_imwvv8QGTC9gUUnr2fX-4">
          <mxGeometry relative="1" as="geometry" />
        </mxCell>
        <mxCell id="_imwvv8QGTC9gUUnr2fX-3" value="Selection Sort" style="strokeWidth=2;html=1;shape=mxgraph.flowchart.terminator;whiteSpace=wrap;" vertex="1" parent="WIyWlLk6GJQsqaUBKTNV-1">
          <mxGeometry x="350" y="90" width="100" height="50" as="geometry" />
        </mxCell>
        <mxCell id="_imwvv8QGTC9gUUnr2fX-7" value="" style="edgeStyle=orthogonalEdgeStyle;rounded=0;orthogonalLoop=1;jettySize=auto;html=1;" edge="1" parent="WIyWlLk6GJQsqaUBKTNV-1" source="_imwvv8QGTC9gUUnr2fX-4" target="_imwvv8QGTC9gUUnr2fX-6">
          <mxGeometry relative="1" as="geometry" />
        </mxCell>
        <mxCell id="_imwvv8QGTC9gUUnr2fX-4" value="Set N =&lt;div&gt;Length of Array&lt;/div&gt;" style="shape=parallelogram;html=1;strokeWidth=2;perimeter=parallelogramPerimeter;whiteSpace=wrap;rounded=1;arcSize=12;size=0.23;" vertex="1" parent="WIyWlLk6GJQsqaUBKTNV-1">
          <mxGeometry x="337.5" y="190" width="125" height="50" as="geometry" />
        </mxCell>
        <mxCell id="_imwvv8QGTC9gUUnr2fX-9" value="" style="edgeStyle=orthogonalEdgeStyle;rounded=0;orthogonalLoop=1;jettySize=auto;html=1;" edge="1" parent="WIyWlLk6GJQsqaUBKTNV-1" source="_imwvv8QGTC9gUUnr2fX-6" target="_imwvv8QGTC9gUUnr2fX-8">
          <mxGeometry relative="1" as="geometry" />
        </mxCell>
        <mxCell id="_imwvv8QGTC9gUUnr2fX-6" value="Set I = 0" style="shape=parallelogram;html=1;strokeWidth=2;perimeter=parallelogramPerimeter;whiteSpace=wrap;rounded=1;arcSize=12;size=0.23;" vertex="1" parent="WIyWlLk6GJQsqaUBKTNV-1">
          <mxGeometry x="337.5" y="290" width="125" height="50" as="geometry" />
        </mxCell>
        <mxCell id="_imwvv8QGTC9gUUnr2fX-11" value="" style="edgeStyle=orthogonalEdgeStyle;rounded=0;orthogonalLoop=1;jettySize=auto;html=1;" edge="1" parent="WIyWlLk6GJQsqaUBKTNV-1" source="_imwvv8QGTC9gUUnr2fX-8" target="_imwvv8QGTC9gUUnr2fX-10">
          <mxGeometry relative="1" as="geometry" />
        </mxCell>
        <mxCell id="_imwvv8QGTC9gUUnr2fX-8" value="Set Minindex = I" style="shape=parallelogram;html=1;strokeWidth=2;perimeter=parallelogramPerimeter;whiteSpace=wrap;rounded=1;arcSize=12;size=0.23;" vertex="1" parent="WIyWlLk6GJQsqaUBKTNV-1">
          <mxGeometry x="337.5" y="390" width="125" height="50" as="geometry" />
        </mxCell>
        <mxCell id="_imwvv8QGTC9gUUnr2fX-13" value="" style="edgeStyle=orthogonalEdgeStyle;rounded=0;orthogonalLoop=1;jettySize=auto;html=1;" edge="1" parent="WIyWlLk6GJQsqaUBKTNV-1" source="_imwvv8QGTC9gUUnr2fX-10">
          <mxGeometry relative="1" as="geometry">
            <mxPoint x="400" y="580" as="targetPoint" />
          </mxGeometry>
        </mxCell>
        <mxCell id="_imwvv8QGTC9gUUnr2fX-10" value="Set J = I + 1" style="shape=parallelogram;html=1;strokeWidth=2;perimeter=parallelogramPerimeter;whiteSpace=wrap;rounded=1;arcSize=12;size=0.23;" vertex="1" parent="WIyWlLk6GJQsqaUBKTNV-1">
          <mxGeometry x="337.5" y="480" width="125" height="50" as="geometry" />
        </mxCell>
        <mxCell id="_imwvv8QGTC9gUUnr2fX-31" value="" style="edgeStyle=orthogonalEdgeStyle;rounded=0;orthogonalLoop=1;jettySize=auto;html=1;" edge="1" parent="WIyWlLk6GJQsqaUBKTNV-1" target="_imwvv8QGTC9gUUnr2fX-20">
          <mxGeometry relative="1" as="geometry">
            <mxPoint x="400" y="685" as="sourcePoint" />
          </mxGeometry>
        </mxCell>
        <mxCell id="_imwvv8QGTC9gUUnr2fX-24" value="" style="edgeStyle=orthogonalEdgeStyle;rounded=0;orthogonalLoop=1;jettySize=auto;html=1;" edge="1" parent="WIyWlLk6GJQsqaUBKTNV-1" source="_imwvv8QGTC9gUUnr2fX-20" target="_imwvv8QGTC9gUUnr2fX-23">
          <mxGeometry relative="1" as="geometry" />
        </mxCell>
        <mxCell id="_imwvv8QGTC9gUUnr2fX-20" value="Set MInindex = J" style="rounded=0;whiteSpace=wrap;html=1;" vertex="1" parent="WIyWlLk6GJQsqaUBKTNV-1">
          <mxGeometry x="340" y="742" width="120" height="40" as="geometry" />
        </mxCell>
        <mxCell id="_imwvv8QGTC9gUUnr2fX-26" value="" style="edgeStyle=orthogonalEdgeStyle;rounded=0;orthogonalLoop=1;jettySize=auto;html=1;" edge="1" parent="WIyWlLk6GJQsqaUBKTNV-1" source="_imwvv8QGTC9gUUnr2fX-23" target="_imwvv8QGTC9gUUnr2fX-25">
          <mxGeometry relative="1" as="geometry" />
        </mxCell>
        <mxCell id="_imwvv8QGTC9gUUnr2fX-23" value="Increment J&lt;div&gt;(J++)&lt;/div&gt;" style="rounded=0;whiteSpace=wrap;html=1;" vertex="1" parent="WIyWlLk6GJQsqaUBKTNV-1">
          <mxGeometry x="340" y="830" width="120" height="43" as="geometry" />
        </mxCell>
        <mxCell id="_imwvv8QGTC9gUUnr2fX-28" value="" style="edgeStyle=orthogonalEdgeStyle;rounded=0;orthogonalLoop=1;jettySize=auto;html=1;" edge="1" parent="WIyWlLk6GJQsqaUBKTNV-1" source="_imwvv8QGTC9gUUnr2fX-25" target="_imwvv8QGTC9gUUnr2fX-27">
          <mxGeometry relative="1" as="geometry" />
        </mxCell>
        <mxCell id="_imwvv8QGTC9gUUnr2fX-25" value="J &amp;lt; N" style="rhombus;whiteSpace=wrap;html=1;rounded=0;" vertex="1" parent="WIyWlLk6GJQsqaUBKTNV-1">
          <mxGeometry x="360" y="919" width="80" height="80" as="geometry" />
        </mxCell>
        <mxCell id="_imwvv8QGTC9gUUnr2fX-30" value="" style="edgeStyle=orthogonalEdgeStyle;rounded=0;orthogonalLoop=1;jettySize=auto;html=1;" edge="1" parent="WIyWlLk6GJQsqaUBKTNV-1" source="_imwvv8QGTC9gUUnr2fX-27" target="_imwvv8QGTC9gUUnr2fX-29">
          <mxGeometry relative="1" as="geometry" />
        </mxCell>
        <mxCell id="_imwvv8QGTC9gUUnr2fX-27" value="Swap&lt;div&gt;Array[I] and Array[Minindex]&lt;/div&gt;" style="whiteSpace=wrap;html=1;rounded=0;" vertex="1" parent="WIyWlLk6GJQsqaUBKTNV-1">
          <mxGeometry x="315.5" y="1057" width="169" height="45.5" as="geometry" />
        </mxCell>
        <mxCell id="_imwvv8QGTC9gUUnr2fX-33" value="" style="edgeStyle=orthogonalEdgeStyle;rounded=0;orthogonalLoop=1;jettySize=auto;html=1;" edge="1" parent="WIyWlLk6GJQsqaUBKTNV-1" source="_imwvv8QGTC9gUUnr2fX-29" target="_imwvv8QGTC9gUUnr2fX-32">
          <mxGeometry relative="1" as="geometry" />
        </mxCell>
        <mxCell id="_imwvv8QGTC9gUUnr2fX-29" value="Increment I&lt;div&gt;(I++)&lt;/div&gt;" style="whiteSpace=wrap;html=1;rounded=0;" vertex="1" parent="WIyWlLk6GJQsqaUBKTNV-1">
          <mxGeometry x="338.25" y="1155" width="123.5" height="45.5" as="geometry" />
        </mxCell>
        <mxCell id="_imwvv8QGTC9gUUnr2fX-36" value="" style="edgeStyle=orthogonalEdgeStyle;rounded=0;orthogonalLoop=1;jettySize=auto;html=1;" edge="1" parent="WIyWlLk6GJQsqaUBKTNV-1" source="_imwvv8QGTC9gUUnr2fX-32" target="_imwvv8QGTC9gUUnr2fX-35">
          <mxGeometry relative="1" as="geometry" />
        </mxCell>
        <mxCell id="_imwvv8QGTC9gUUnr2fX-32" value="I &amp;lt; N - 1" style="rhombus;whiteSpace=wrap;html=1;rounded=0;" vertex="1" parent="WIyWlLk6GJQsqaUBKTNV-1">
          <mxGeometry x="360" y="1268.25" width="80" height="80" as="geometry" />
        </mxCell>
        <mxCell id="_imwvv8QGTC9gUUnr2fX-35" value="Sorted Array" style="strokeWidth=2;html=1;shape=mxgraph.flowchart.terminator;whiteSpace=wrap;" vertex="1" parent="WIyWlLk6GJQsqaUBKTNV-1">
          <mxGeometry x="350" y="1380" width="100" height="50" as="geometry" />
        </mxCell>
        <mxCell id="_imwvv8QGTC9gUUnr2fX-37" value="" style="endArrow=none;html=1;rounded=0;entryX=0;entryY=0.5;entryDx=0;entryDy=0;" edge="1" parent="WIyWlLk6GJQsqaUBKTNV-1">
          <mxGeometry width="50" height="50" relative="1" as="geometry">
            <mxPoint x="240" y="636" as="sourcePoint" />
            <mxPoint x="345" y="635.5" as="targetPoint" />
          </mxGeometry>
        </mxCell>
        <mxCell id="_imwvv8QGTC9gUUnr2fX-38" value="Array[J] &amp;gt;&lt;div&gt;Array[Minindex]&lt;/div&gt;" style="rhombus;whiteSpace=wrap;html=1;" vertex="1" parent="WIyWlLk6GJQsqaUBKTNV-1">
          <mxGeometry x="345" y="581" width="110" height="105" as="geometry" />
        </mxCell>
        <mxCell id="_imwvv8QGTC9gUUnr2fX-39" value="" style="endArrow=none;html=1;rounded=0;" edge="1" parent="WIyWlLk6GJQsqaUBKTNV-1">
          <mxGeometry width="50" height="50" relative="1" as="geometry">
            <mxPoint x="240" y="850" as="sourcePoint" />
            <mxPoint x="240" y="634" as="targetPoint" />
          </mxGeometry>
        </mxCell>
        <mxCell id="_imwvv8QGTC9gUUnr2fX-40" value="" style="endArrow=classic;html=1;rounded=0;entryX=0;entryY=0.5;entryDx=0;entryDy=0;" edge="1" parent="WIyWlLk6GJQsqaUBKTNV-1">
          <mxGeometry width="50" height="50" relative="1" as="geometry">
            <mxPoint x="240" y="850" as="sourcePoint" />
            <mxPoint x="340" y="849.5" as="targetPoint" />
          </mxGeometry>
        </mxCell>
        <mxCell id="_imwvv8QGTC9gUUnr2fX-41" value="" style="endArrow=none;html=1;rounded=0;exitX=1;exitY=0.5;exitDx=0;exitDy=0;" edge="1" parent="WIyWlLk6GJQsqaUBKTNV-1" source="_imwvv8QGTC9gUUnr2fX-25">
          <mxGeometry width="50" height="50" relative="1" as="geometry">
            <mxPoint x="440" y="970" as="sourcePoint" />
            <mxPoint x="520" y="960" as="targetPoint" />
          </mxGeometry>
        </mxCell>
        <mxCell id="_imwvv8QGTC9gUUnr2fX-42" value="" style="endArrow=none;html=1;rounded=0;" edge="1" parent="WIyWlLk6GJQsqaUBKTNV-1">
          <mxGeometry width="50" height="50" relative="1" as="geometry">
            <mxPoint x="520" y="960" as="sourcePoint" />
            <mxPoint x="520" y="634" as="targetPoint" />
          </mxGeometry>
        </mxCell>
        <mxCell id="_imwvv8QGTC9gUUnr2fX-43" value="" style="endArrow=classic;html=1;rounded=0;entryX=1;entryY=0.5;entryDx=0;entryDy=0;" edge="1" parent="WIyWlLk6GJQsqaUBKTNV-1" target="_imwvv8QGTC9gUUnr2fX-38">
          <mxGeometry width="50" height="50" relative="1" as="geometry">
            <mxPoint x="520" y="634" as="sourcePoint" />
            <mxPoint x="570" y="590" as="targetPoint" />
          </mxGeometry>
        </mxCell>
        <mxCell id="_imwvv8QGTC9gUUnr2fX-44" value="" style="endArrow=none;html=1;rounded=0;entryX=0;entryY=0.5;entryDx=0;entryDy=0;" edge="1" parent="WIyWlLk6GJQsqaUBKTNV-1" target="_imwvv8QGTC9gUUnr2fX-32">
          <mxGeometry width="50" height="50" relative="1" as="geometry">
            <mxPoint x="167" y="1308.25" as="sourcePoint" />
            <mxPoint x="358" y="1306.25" as="targetPoint" />
          </mxGeometry>
        </mxCell>
        <mxCell id="_imwvv8QGTC9gUUnr2fX-45" value="" style="endArrow=none;html=1;rounded=0;" edge="1" parent="WIyWlLk6GJQsqaUBKTNV-1">
          <mxGeometry width="50" height="50" relative="1" as="geometry">
            <mxPoint x="167" y="1308" as="sourcePoint" />
            <mxPoint x="167" y="414" as="targetPoint" />
          </mxGeometry>
        </mxCell>
        <mxCell id="_imwvv8QGTC9gUUnr2fX-46" value="" style="endArrow=classic;html=1;rounded=0;entryX=0;entryY=0.5;entryDx=0;entryDy=0;" edge="1" parent="WIyWlLk6GJQsqaUBKTNV-1">
          <mxGeometry width="50" height="50" relative="1" as="geometry">
            <mxPoint x="167" y="415" as="sourcePoint" />
            <mxPoint x="350.005" y="415" as="targetPoint" />
          </mxGeometry>
        </mxCell>
        <mxCell id="_imwvv8QGTC9gUUnr2fX-47" value="No" style="text;html=1;align=center;verticalAlign=middle;resizable=0;points=[];autosize=1;strokeColor=none;fillColor=none;" vertex="1" parent="WIyWlLk6GJQsqaUBKTNV-1">
          <mxGeometry x="290" y="608" width="40" height="30" as="geometry" />
        </mxCell>
        <mxCell id="_imwvv8QGTC9gUUnr2fX-49" value="Yes" style="text;html=1;align=center;verticalAlign=middle;resizable=0;points=[];autosize=1;strokeColor=none;fillColor=none;" vertex="1" parent="WIyWlLk6GJQsqaUBKTNV-1">
          <mxGeometry x="396" y="691" width="40" height="30" as="geometry" />
        </mxCell>
        <mxCell id="_imwvv8QGTC9gUUnr2fX-50" value="Yes" style="text;html=1;align=center;verticalAlign=middle;resizable=0;points=[];autosize=1;strokeColor=none;fillColor=none;" vertex="1" parent="WIyWlLk6GJQsqaUBKTNV-1">
          <mxGeometry x="465" y="930" width="40" height="30" as="geometry" />
        </mxCell>
        <mxCell id="_imwvv8QGTC9gUUnr2fX-51" value="No" style="text;html=1;align=center;verticalAlign=middle;resizable=0;points=[];autosize=1;strokeColor=none;fillColor=none;" vertex="1" parent="WIyWlLk6GJQsqaUBKTNV-1">
          <mxGeometry x="400" y="999" width="40" height="30" as="geometry" />
        </mxCell>
        <mxCell id="_imwvv8QGTC9gUUnr2fX-52" value="No" style="text;html=1;align=center;verticalAlign=middle;resizable=0;points=[];autosize=1;strokeColor=none;fillColor=none;" vertex="1" parent="WIyWlLk6GJQsqaUBKTNV-1">
          <mxGeometry x="396" y="1348.25" width="40" height="30" as="geometry" />
        </mxCell>
        <mxCell id="_imwvv8QGTC9gUUnr2fX-53" value="Yes" style="text;html=1;align=center;verticalAlign=middle;resizable=0;points=[];autosize=1;strokeColor=none;fillColor=none;" vertex="1" parent="WIyWlLk6GJQsqaUBKTNV-1">
          <mxGeometry x="315.5" y="1280" width="40" height="30" as="geometry" />
        </mxCell>
      </root>
    </mxGraphModel>
  </diagram>
</mxfile>
